<svg width="120" height="24" viewBox="0 0 120 24" fill="none" xmlns="http://www.w3.org/2000/svg">
<g id="Layer_1" clip-path="url(#clip0_437_8883)">
<g id="Group 70">
<path id="Vector" d="M15.4752 9.59825V7.12808C15.4752 6.55837 15.0132 6.09708 14.4435 6.09779L7.55453 6.10558C7.57296 6.1155 7.59067 6.12684 7.60839 6.13888C7.59067 6.12755 7.57296 6.11621 7.55453 6.10558C6.68792 6.16794 5.80643 6.14455 4.95611 6.31603C3.4964 6.60656 2.30029 7.39877 1.3855 8.57787C0.584784 9.60675 0.0526282 10.7837 0.0271187 12.084C-0.0274431 14.9347 0.0171984 17.7875 0.0171984 20.6389H0.0193242C0.0171984 21.0938 0.0129468 21.5508 0.0122382 22.0079C0.0122382 22.5719 0.249618 22.832 0.810826 22.832C4.88667 22.832 8.96251 22.8299 13.0391 22.8263C13.1779 22.832 13.3175 22.8419 13.4571 22.8419H29.2369C29.9001 22.8419 30.2048 22.5372 30.2048 21.8655C30.2062 18.8093 30.2119 15.7538 30.1984 12.6976C30.1928 12.2739 30.0978 11.8509 30.0461 11.4271C29.8817 10.4783 29.499 9.58053 28.9293 8.80391C27.6645 7.08769 25.9879 6.13463 23.8409 6.10416C22.3925 6.0829 20.9449 6.08787 19.4958 6.09212C18.9289 6.09353 18.4697 6.55341 18.469 7.11958L18.4591 11.3371C18.4591 12.2541 17.8377 12.9464 17.0136 12.9464H16.9838C16.1158 12.9279 15.4866 12.2505 15.4866 11.335M11.6056 17.0605V21.3687H1.45281V20.1804H1.45069C1.45281 17.6188 1.44289 15.0566 1.46344 12.4943C1.47336 11.2188 1.94529 10.1176 2.82395 9.18018C3.91306 8.01737 5.25089 7.45829 6.83106 7.55324C7.95347 7.60355 9.02203 8.04642 9.8518 8.8032C10.6398 9.5203 11.2073 10.3685 11.4476 11.413C11.5298 11.729 11.5786 12.0528 11.5928 12.3788C11.6063 13.9391 11.6063 15.4987 11.6063 17.0591H11.6077L11.6063 17.0598L11.6056 17.0605Z" fill="#3066BE"/>
<path id="Vector_2" d="M23.9511 1.1251C23.9497 0.48169 23.4827 0.0111828 22.8428 0.0111828C22.5778 0.0104742 22.3107 0.0225204 22.0442 0.0225204V0.0203946C20.3146 0.0168516 18.587 0.00976562 16.8602 0.00976562C16.542 0.00976562 16.2501 0.337137 16.2501 0.695686C16.2494 2.44521 16.2564 4.19119 16.2607 5.94496L16.2649 5.94355L16.2635 5.94496L16.2373 6.0959C16.2401 7.84188 16.2444 9.58856 16.2501 11.336C16.2501 11.8384 16.5548 12.1756 17.0012 12.1849C17.4114 12.1934 17.6984 11.8447 17.6984 11.336C17.7027 9.58856 17.7069 7.84188 17.7105 6.0959C17.7048 5.73097 17.6991 5.36675 17.6928 5.00253L17.714 3.87728H18.3844C19.8327 3.88153 21.2811 3.90988 22.7273 3.88012C23.4175 3.86453 23.9738 3.54779 23.9511 2.60677C23.9412 2.115 23.9511 1.61828 23.9511 1.12439V1.1251Z" fill="#3066BE"/>
</g>
<g id="Group 71">
<path id="Vector_3" d="M80.168 21.8284V0.0107422H84.3905V7.75711C84.7597 7.46375 85.0785 7.16969 85.4364 6.93443C86.0982 6.50431 86.8493 6.23151 87.633 6.13726C88.8497 5.97712 90.0238 6.08979 91.1618 6.56242C92.0575 6.93514 92.7392 7.56296 93.2649 8.35304C94.0515 9.53356 94.3859 10.8714 94.4696 12.2687C94.5284 13.2863 94.5964 14.3123 94.5312 15.327C94.4143 17.1694 93.9289 18.9175 92.72 20.3673C91.7592 21.5188 90.5085 22.2543 89.0495 22.6249C87.8399 22.9317 86.6013 22.9742 85.3691 22.897C83.7393 22.7956 82.1265 22.5661 80.5839 21.99C80.445 21.9397 80.309 21.8837 80.168 21.8284ZM84.4125 15.32C84.4125 16.3694 84.4302 17.4188 84.4025 18.4668C84.3933 18.7977 84.5159 18.9288 84.8036 19.0231C85.5313 19.2633 86.3002 19.3554 87.064 19.2931C87.7563 19.2385 88.4004 19.0188 88.9234 18.5136C89.8254 17.6463 90.0238 16.5069 90.1422 15.3511C90.2038 14.7439 90.1422 14.1253 90.1549 13.5123C90.1641 12.8101 90.0401 12.1129 89.79 11.4574C89.5122 10.7169 89.0665 10.0849 88.2715 9.82763C87.0839 9.43861 85.6901 9.77803 84.9411 10.8969C84.6137 11.3844 84.3742 11.8967 84.4032 12.5267C84.4465 13.4563 84.4125 14.3889 84.4125 15.32Z" fill="#434D5F"/>
<path id="Vector_4" d="M77.8216 22.548H74.3757C74.144 21.8182 73.9123 21.0897 73.6614 20.3011C73.2682 20.9438 72.7417 21.4943 72.1181 21.9167C71.4287 22.3886 70.6336 22.6848 69.8031 22.779C68.8324 22.8917 67.8899 22.8598 66.9574 22.5558C65.3645 22.0343 64.4008 20.9261 64.0082 19.3225C63.7319 18.2546 63.8205 17.1251 64.2612 16.114C64.7771 14.9306 65.7493 14.2008 66.9021 13.7239C67.9523 13.2888 69.0726 13.045 70.2092 13.0061C71.1126 12.9756 72.0161 12.9423 72.9195 12.9423C73.2278 12.9423 73.3114 12.8403 73.2909 12.554C73.254 12.0431 73.2951 11.5209 73.2037 11.0213C73.0478 10.171 72.5114 9.88259 71.7808 9.75787C70.5968 9.55663 69.4205 9.70969 68.2598 9.96407C67.4612 10.1384 66.6704 10.3495 65.8598 10.5487L64.8586 7.37345C65.8265 6.92065 66.8547 6.63651 67.9055 6.42535C69.344 6.1327 70.8122 6.01649 72.279 6.07884C73.5141 6.1334 74.7116 6.35449 75.7419 7.12686C76.5539 7.73483 77.0174 8.55042 77.2562 9.51341C77.619 10.9667 77.4475 12.447 77.4574 13.9145C77.4652 14.988 77.3582 16.0608 77.3313 17.1344C77.3086 18.0307 77.2604 18.9335 77.3454 19.8221C77.4255 20.6823 77.6572 21.5276 77.8209 22.3808C77.8259 22.4368 77.8259 22.492 77.8216 22.548ZM73.2866 15.5514H71.3132C70.6357 15.5535 69.9668 15.7002 69.3503 15.9815C68.6751 16.2883 68.2053 16.7021 68.2676 17.5276C68.3484 18.6061 68.9209 19.1283 70.0164 19.2233C71.2324 19.3296 72.2308 18.869 72.9925 17.9209C73.1286 17.7515 73.2597 17.5276 73.276 17.3207C73.3121 16.7489 73.2873 16.1714 73.2873 15.5514H73.2866Z" fill="#434D5F"/>
<path id="Vector_5" d="M118.122 18.3527C118.207 18.5185 118.282 18.6688 118.361 18.8176C118.682 19.4319 119.009 20.0434 119.326 20.6599C119.581 21.1559 119.581 21.1921 119.108 21.4762C118.034 22.1203 116.87 22.5299 115.642 22.7694C114.657 22.9636 113.65 23.0309 112.649 22.9707C110.867 22.8622 109.196 22.4165 107.917 21.0702C107.016 20.1228 106.489 18.9628 106.17 17.7044C105.823 16.3396 105.745 14.9458 105.827 13.552C105.905 12.2149 106.13 10.8891 106.744 9.67527C107.322 8.5316 108.154 7.60759 109.295 6.98686C110.295 6.44408 111.359 6.16489 112.495 6.05506C113.797 5.92893 115.06 6.02104 116.296 6.42423C117.572 6.83947 118.555 7.61751 119.206 8.80299C119.696 9.67173 119.964 10.6482 119.985 11.6459C119.997 12.3771 120.014 13.1098 119.979 13.8425C119.953 14.369 119.85 14.8927 119.766 15.4156C119.739 15.5892 119.613 15.6282 119.436 15.6282C118.042 15.6197 116.649 15.6232 115.255 15.6232H110.058C110.183 16.9915 110.469 18.2642 111.705 19.0302C112.141 19.3015 112.703 19.3922 113.221 19.5035C113.6 19.5744 113.986 19.5999 114.37 19.58C115.6 19.5566 116.799 19.1903 117.831 18.5214C117.879 18.4909 117.93 18.4654 117.979 18.4378L118.122 18.3527ZM110.19 12.9128H116.121C116.086 12.4168 116.095 11.9364 116.008 11.473C115.902 10.9061 115.681 10.3853 115.229 9.97572C114.853 9.63347 114.402 9.48324 113.93 9.41947C113.072 9.30397 112.216 9.42939 111.535 9.96934C110.618 10.6999 110.293 11.7543 110.19 12.9157V12.9128Z" fill="#434D5F"/>
<path id="Vector_6" d="M58.3339 10.021C58.3339 12.3593 58.3105 14.646 58.3502 16.9312C58.3601 17.4761 58.5316 18.0331 58.7144 18.5546C58.8767 19.0201 59.316 19.1923 59.7901 19.2292C60.5809 19.2894 61.3065 19.0386 62.0796 18.6864L62.8477 21.97C61.9577 22.3952 61.0238 22.7176 60.0324 22.8345C59.3975 22.9174 58.7591 22.9642 58.1192 22.9762C57.1272 22.9819 56.177 22.7438 55.3883 22.1117C54.7768 21.6221 54.4466 20.9255 54.3041 20.1709C54.1752 19.5254 54.1043 18.8699 54.0916 18.2123C54.0682 15.502 54.0816 12.7916 54.0816 10.0521H51.9062V6.43901H54.0816V4.12757C54.0816 3.44519 54.0774 3.43031 54.7151 3.24608C55.9056 2.90241 57.101 2.57716 58.324 2.23633V6.41138H62.2107V10.021H58.3339Z" fill="#434D5F"/>
<path id="Vector_7" d="M97.0276 0H101.279V0.374847C101.279 6.00889 101.281 11.6429 101.286 17.2784C101.288 17.6582 101.339 18.0366 101.436 18.4037C101.609 19.0655 102.233 19.3914 102.934 19.2221C103.342 19.1243 103.746 19.0095 104.189 18.8947C104.339 19.9959 104.491 21.1091 104.644 22.2251C103.241 22.792 101.825 23.0577 100.357 22.9791C99.5006 22.933 98.675 22.724 98.0068 22.1493C97.4322 21.6533 97.1615 20.978 97.1069 20.241C97.0446 19.4014 97.0311 18.556 97.0304 17.7135C97.024 11.9505 97.0226 6.18675 97.0268 0.42374V0H97.0276Z" fill="#434D5F"/>
<path id="Vector_8" d="M45.8625 18.1221C45.8625 17.6912 45.6789 17.3469 45.3133 17.0882C44.947 16.8296 44.4942 16.5929 43.9563 16.3775C43.4178 16.1621 42.8254 15.941 42.1792 15.715C41.5329 15.4889 40.9406 15.1771 40.402 14.7782C39.8635 14.38 39.4114 13.8733 39.0451 13.2597C38.6787 12.646 38.4959 11.8545 38.4959 10.8852C38.4959 9.29155 38.9692 8.07418 39.9173 7.23449C40.8647 6.39481 42.2323 5.97461 44.0201 5.97461C45.2481 5.97461 46.3571 6.10357 47.3477 6.36221C48.3383 6.62085 49.1135 6.91137 49.674 7.23449L48.7372 10.2715C48.2412 10.0774 47.6169 9.8733 46.8637 9.65789C46.1098 9.44248 45.3452 9.33477 44.57 9.33477C43.3207 9.33477 42.6965 9.81945 42.6965 10.7888C42.6965 11.1764 42.8793 11.4889 43.2456 11.7256C43.612 11.963 44.064 12.1833 44.6026 12.3881C45.1404 12.5929 45.7335 12.814 46.3797 13.0506C47.026 13.288 47.6177 13.5948 48.1569 13.9711C48.6947 14.3481 49.1475 14.8384 49.5139 15.4407C49.8795 16.0438 50.063 16.8197 50.063 17.7671C50.063 19.4039 49.5408 20.6907 48.4963 21.6275C47.4511 22.5643 45.8844 23.0326 43.7955 23.0326C42.6539 23.0326 41.5825 22.8874 40.5806 22.5961C39.5793 22.3056 38.7659 21.9662 38.1416 21.5786L39.3044 18.4445C39.7997 18.7244 40.4566 18.9993 41.275 19.2686C42.0934 19.5378 42.9331 19.6725 43.7948 19.6725C44.4191 19.6725 44.92 19.5541 45.297 19.3168C45.6733 19.0801 45.8625 18.6819 45.8625 18.1214V18.1221Z" fill="#434D5F"/>
</g>
</g>
<defs>
<clipPath id="clip0_437_8883">
<rect width="120" height="23.0336" fill="white"/>
</clipPath>
</defs>
</svg>
